<?xml version="1.0" encoding="UTF-8" standalone="no"?>
<!DOCTYPE svg PUBLIC "-//W3C//DTD SVG 1.1//EN" "http://www.w3.org/Graphics/SVG/1.1/DTD/svg11.dtd">
<svg width="100%" height="100%" viewBox="0 0 640 480" version="1.1" xmlns="http://www.w3.org/2000/svg" xmlns:xlink="http://www.w3.org/1999/xlink" xml:space="preserve" xmlns:serif="http://www.serif.com/" style="fill-rule:evenodd;clip-rule:evenodd;stroke-linejoin:round;stroke-miterlimit:2;">
    <rect x="0" y="0" width="640" height="480" style="fill:rgb(170,21,27);fill-rule:nonzero;"/>
    <rect x="0" y="120" width="640" height="240" style="fill:rgb(241,191,0);fill-rule:nonzero;"/>
    <path d="M159.702,190.897L159.7,190.9L158.4,189.9L158.59,189.587C157.113,187.748 156.305,185.459 156.3,183.1C156.3,179.435 158.398,176.19 161.749,173.903C161.987,173.752 162.304,173.55 162.7,173.3C165.733,171.382 170.03,170.2 174.8,170.2C176.8,170.2 178.8,170.4 180.7,170.8L180.369,171.264C181.215,170.231 182.311,169.312 183.614,168.55C186.069,166.566 189.687,165.3 193.8,165.3C196.813,165.23 199.793,165.944 202.447,167.372C202.465,167.247 202.482,167.123 202.5,167C202.743,165.785 203.774,164.832 205.061,164.514C203.779,164.244 202.708,163.367 202.171,162.2L202.1,162.2C201.9,161.7 201.8,161.2 201.8,160.6C201.8,158.783 203.096,157.239 204.9,156.756L204.9,153.7L202.6,153.7L202.6,151.5L205,151.5L205,149.3L207.3,149.3L207.3,151.5L209.6,151.5L209.6,153.7L207.3,153.7L207.3,156.758C209.076,157.243 210.3,158.786 210.3,160.6C210.3,161.2 210.2,161.7 210,162.2L209.944,162.2C209.403,163.359 208.289,164.235 206.92,164.509C208.216,164.822 209.256,165.779 209.5,167C209.582,167.382 209.649,167.772 209.703,168.169C209.673,167.912 209.639,167.656 209.6,167.4C212.267,165.953 215.267,165.229 218.3,165.3C222.389,165.3 225.99,166.552 228.427,168.516C229.558,169.191 230.551,169.991 231.361,170.885L231.3,170.8C233.274,170.392 235.285,170.191 237.3,170.2C242.71,170.2 247.512,171.72 250.552,174.111C253.746,176.385 255.8,179.545 255.8,183.1C255.795,185.465 254.983,187.758 253.5,189.6L253.6,189.9L252.3,190.9L252.008,190.422L251.8,192.4L247.7,197.1L245.7,198.9L240.7,202.8L238.2,203L237.575,204.875C238.393,205.052 238.852,205.156 238.852,205.156L236.6,208.2C236.6,208.2 235.8,211 236.4,211.2C236.365,211.19 236.333,211.18 236.305,211.172C236.532,211.22 235.756,211.009 236.305,211.172C236.288,211.168 236.265,211.163 236.237,211.157C236.32,211.171 235.383,210.919 236,211.1C236.483,211.301 236.8,211.776 236.8,212.3C236.8,212.824 236.483,213.299 236,213.5C231.417,214.844 225.714,215.89 219.278,216.5L254.6,216.5L254.6,302C254.59,310.675 249.607,318.617 241.8,322.4C230.804,327.764 218.734,330.568 206.5,330.6C194.202,330.563 182.068,327.761 171,322.4C163.193,318.617 158.21,310.675 158.2,302L158.2,270L158.1,270L158,216.5L193.088,216.5C186.624,215.89 180.883,214.844 176.3,213.5C175.774,213.356 175.431,212.841 175.5,212.3C175.5,211.826 175.77,211.352 176.224,211.133C176.554,210.759 176.379,209.998 175.7,208.3C174.7,205.8 172.969,205.239 172.969,205.239C173.347,205.125 173.731,205.012 174.124,204.899L173.4,203L170.9,202.8L166,198.8L164,197.1L159.9,192.4L159.702,190.897ZM236.237,211.157C236.218,211.154 236.149,211.137 236,211.1C236.106,211.126 236.182,211.144 236.237,211.157ZM251.2,185.224C251.977,184.042 252.403,182.644 252.4,181.2C252.4,180.1 252.2,179.1 251.7,178.1C250.1,174.5 244.3,171.8 237.3,171.8C235.647,171.768 233.994,171.898 232.366,172.188C233.219,173.506 233.7,174.968 233.7,176.5C233.656,177.799 233.335,179.054 232.779,180.191C233.851,180.215 234.926,180.185 236,180.1C238.7,180.1 242.5,180.9 246.3,182.5C248.025,183.239 249.667,184.152 251.2,185.224ZM228.44,179.793C229.425,178.526 229.989,176.952 230,175.3C230.019,175 230.019,174.7 230,174.4C229.8,170.3 224.7,166.8 218.3,166.8C215.296,166.729 212.339,167.562 209.814,169.191C209.875,169.936 209.9,170.706 209.9,171.5L209.9,172.6C209.931,173.626 210.001,174.623 210.103,175.564C214.615,175.902 218.586,176.735 221.4,177.8C223.67,178.737 226.033,179.404 228.44,179.793ZM201.902,175.519C202.001,174.591 202.069,173.61 202.1,172.6L202.1,171.5C202.1,170.693 202.151,169.91 202.227,169.154C200.034,167.778 197.064,166.8 193.8,166.8C187.3,166.8 182.3,170.3 182.1,174.4C181.884,176.329 182.44,178.229 183.579,179.719C185.847,179.369 188.068,178.758 190.2,177.9C193.151,176.704 197.119,175.826 201.902,175.519ZM179.303,180.164C178.762,179.031 178.448,177.787 178.4,176.5C178.4,174.972 178.856,173.513 179.691,172.198C178.077,171.909 176.439,171.775 174.8,171.8C167.8,171.8 162,174.5 160.3,178.1C159.832,179.066 159.593,180.127 159.6,181.2C159.613,182.569 160.011,183.891 160.725,185.025C162.196,184.036 163.762,183.19 165.4,182.5C168.602,181.016 172.072,180.199 175.6,180.1C176.766,180.217 178.001,180.231 179.303,180.164ZM161.405,174.123C161.145,174.292 161.144,174.29 161.405,174.123ZM161.749,173.903C161.606,173.995 161.491,174.068 161.405,174.123C161.518,174.05 161.679,173.946 161.889,173.809C161.842,173.84 161.796,173.872 161.749,173.903ZM228.517,168.59C229.207,169.157 229.8,169.782 230.281,170.452C229.796,169.753 229.204,169.123 228.517,168.59Z" style="fill:rgb(173,21,25);"/>
</svg>
